<mxfile host="app.diagrams.net" modified="2022-11-24T13:53:57.880Z" agent="5.0 (Windows NT 10.0; Win64; x64) AppleWebKit/537.36 (KHTML, like Gecko) Chrome/107.0.0.0 Safari/537.36" etag="QVGr00staTATHGjFexdh" version="20.6.0" type="github">
  <diagram id="kgpKYQtTHZ0yAKxKKP6v" name="Page-1">
    <mxGraphModel dx="1038" dy="521" grid="1" gridSize="10" guides="1" tooltips="1" connect="1" arrows="1" fold="1" page="1" pageScale="1" pageWidth="850" pageHeight="1100" math="0" shadow="0">
      <root>
        <mxCell id="0" />
        <mxCell id="1" parent="0" />
        <mxCell id="3nuBFxr9cyL0pnOWT2aG-1" value=":User" style="shape=umlLifeline;perimeter=lifelinePerimeter;container=1;collapsible=0;recursiveResize=0;rounded=0;shadow=0;strokeWidth=1;" parent="1" vertex="1">
          <mxGeometry x="75" y="80" width="95" height="300" as="geometry" />
        </mxCell>
        <mxCell id="3nuBFxr9cyL0pnOWT2aG-2" value="" style="points=[];perimeter=orthogonalPerimeter;rounded=0;shadow=0;strokeWidth=1;" parent="3nuBFxr9cyL0pnOWT2aG-1" vertex="1">
          <mxGeometry x="43" y="70" width="10" height="190" as="geometry" />
        </mxCell>
        <mxCell id="3nuBFxr9cyL0pnOWT2aG-5" value=":TrainWebsite" style="shape=umlLifeline;perimeter=lifelinePerimeter;container=1;collapsible=0;recursiveResize=0;rounded=0;shadow=0;strokeWidth=1;" parent="1" vertex="1">
          <mxGeometry x="205" y="80" width="100" height="300" as="geometry" />
        </mxCell>
        <mxCell id="3nuBFxr9cyL0pnOWT2aG-6" value="" style="points=[];perimeter=orthogonalPerimeter;rounded=0;shadow=0;strokeWidth=1;" parent="3nuBFxr9cyL0pnOWT2aG-5" vertex="1">
          <mxGeometry x="45" y="74" width="10" height="176" as="geometry" />
        </mxCell>
        <mxCell id="EXJ5fEbcjcszKb9O7e2S-3" value=":TimeDatabase" style="shape=umlLifeline;perimeter=lifelinePerimeter;container=1;collapsible=0;recursiveResize=0;rounded=0;shadow=0;strokeWidth=1;" vertex="1" parent="1">
          <mxGeometry x="445" y="80" width="100" height="300" as="geometry" />
        </mxCell>
        <mxCell id="EXJ5fEbcjcszKb9O7e2S-4" value="" style="points=[];perimeter=orthogonalPerimeter;rounded=0;shadow=0;strokeWidth=1;" vertex="1" parent="EXJ5fEbcjcszKb9O7e2S-3">
          <mxGeometry x="45" y="110" width="10" height="60" as="geometry" />
        </mxCell>
        <mxCell id="EXJ5fEbcjcszKb9O7e2S-19" value="Choose time depart" style="text;html=1;align=center;verticalAlign=middle;resizable=0;points=[];autosize=1;strokeColor=none;fillColor=none;" vertex="1" parent="EXJ5fEbcjcszKb9O7e2S-3">
          <mxGeometry x="-75" y="80" width="130" height="30" as="geometry" />
        </mxCell>
        <mxCell id="EXJ5fEbcjcszKb9O7e2S-5" value=":PriceDatabase" style="shape=umlLifeline;perimeter=lifelinePerimeter;container=1;collapsible=0;recursiveResize=0;rounded=0;shadow=0;strokeWidth=1;" vertex="1" parent="1">
          <mxGeometry x="565" y="80" width="100" height="300" as="geometry" />
        </mxCell>
        <mxCell id="EXJ5fEbcjcszKb9O7e2S-6" value="" style="points=[];perimeter=orthogonalPerimeter;rounded=0;shadow=0;strokeWidth=1;" vertex="1" parent="EXJ5fEbcjcszKb9O7e2S-5">
          <mxGeometry x="45" y="80" width="10" height="160" as="geometry" />
        </mxCell>
        <mxCell id="EXJ5fEbcjcszKb9O7e2S-7" value=":Ticket" style="shape=umlLifeline;perimeter=lifelinePerimeter;container=1;collapsible=0;recursiveResize=0;rounded=0;shadow=0;strokeWidth=1;" vertex="1" parent="1">
          <mxGeometry x="680" y="80" width="130" height="300" as="geometry" />
        </mxCell>
        <mxCell id="EXJ5fEbcjcszKb9O7e2S-8" value="" style="points=[];perimeter=orthogonalPerimeter;rounded=0;shadow=0;strokeWidth=1;" vertex="1" parent="EXJ5fEbcjcszKb9O7e2S-7">
          <mxGeometry x="60" y="240" width="10" height="20" as="geometry" />
        </mxCell>
        <mxCell id="EXJ5fEbcjcszKb9O7e2S-12" value="" style="endArrow=classic;html=1;rounded=0;" edge="1" parent="1">
          <mxGeometry width="50" height="50" relative="1" as="geometry">
            <mxPoint x="130" y="155" as="sourcePoint" />
            <mxPoint x="250" y="155" as="targetPoint" />
          </mxGeometry>
        </mxCell>
        <mxCell id="EXJ5fEbcjcszKb9O7e2S-13" value="choice the station" style="edgeLabel;html=1;align=center;verticalAlign=middle;resizable=0;points=[];" vertex="1" connectable="0" parent="EXJ5fEbcjcszKb9O7e2S-12">
          <mxGeometry x="-0.2166" y="1" relative="1" as="geometry">
            <mxPoint x="15" y="-10" as="offset" />
          </mxGeometry>
        </mxCell>
        <mxCell id="EXJ5fEbcjcszKb9O7e2S-1" value=":StationsDatabase" style="shape=umlLifeline;perimeter=lifelinePerimeter;container=1;collapsible=0;recursiveResize=0;rounded=0;shadow=0;strokeWidth=1;" vertex="1" parent="1">
          <mxGeometry x="325" y="80" width="100" height="300" as="geometry" />
        </mxCell>
        <mxCell id="EXJ5fEbcjcszKb9O7e2S-2" value="" style="points=[];perimeter=orthogonalPerimeter;rounded=0;shadow=0;strokeWidth=1;" vertex="1" parent="EXJ5fEbcjcszKb9O7e2S-1">
          <mxGeometry x="45" y="90" width="10" height="50" as="geometry" />
        </mxCell>
        <mxCell id="EXJ5fEbcjcszKb9O7e2S-22" value="" style="endArrow=classic;html=1;rounded=0;exitX=0.482;exitY=0.486;exitDx=0;exitDy=0;exitPerimeter=0;dashed=1;" edge="1" parent="EXJ5fEbcjcszKb9O7e2S-1" target="3nuBFxr9cyL0pnOWT2aG-1">
          <mxGeometry width="50" height="50" relative="1" as="geometry">
            <mxPoint x="168.20000000000005" y="169.99999999999994" as="sourcePoint" />
            <mxPoint x="55" y="170.2" as="targetPoint" />
          </mxGeometry>
        </mxCell>
        <mxCell id="EXJ5fEbcjcszKb9O7e2S-28" value="" style="endArrow=classic;html=1;rounded=0;dashed=1;" edge="1" parent="EXJ5fEbcjcszKb9O7e2S-1" source="EXJ5fEbcjcszKb9O7e2S-5">
          <mxGeometry width="50" height="50" relative="1" as="geometry">
            <mxPoint x="176.20000000000005" y="220" as="sourcePoint" />
            <mxPoint x="-195" y="220" as="targetPoint" />
          </mxGeometry>
        </mxCell>
        <mxCell id="EXJ5fEbcjcszKb9O7e2S-16" value="" style="endArrow=block;html=1;rounded=0;endFill=1;" edge="1" parent="1">
          <mxGeometry width="50" height="50" relative="1" as="geometry">
            <mxPoint x="130" y="170" as="sourcePoint" />
            <mxPoint x="370" y="170" as="targetPoint" />
          </mxGeometry>
        </mxCell>
        <mxCell id="EXJ5fEbcjcszKb9O7e2S-17" value="Choose the station" style="edgeLabel;html=1;align=center;verticalAlign=middle;resizable=0;points=[];" vertex="1" connectable="0" parent="EXJ5fEbcjcszKb9O7e2S-16">
          <mxGeometry x="-0.4033" y="2" relative="1" as="geometry">
            <mxPoint x="108" y="-8" as="offset" />
          </mxGeometry>
        </mxCell>
        <mxCell id="EXJ5fEbcjcszKb9O7e2S-18" value="" style="endArrow=classic;html=1;rounded=0;entryX=0.45;entryY=0.369;entryDx=0;entryDy=0;entryPerimeter=0;" edge="1" parent="1" target="EXJ5fEbcjcszKb9O7e2S-3">
          <mxGeometry width="50" height="50" relative="1" as="geometry">
            <mxPoint x="130" y="191" as="sourcePoint" />
            <mxPoint x="450" y="290" as="targetPoint" />
          </mxGeometry>
        </mxCell>
        <mxCell id="EXJ5fEbcjcszKb9O7e2S-24" value="Choose arrival station" style="edgeLabel;html=1;align=center;verticalAlign=middle;resizable=0;points=[];" vertex="1" connectable="0" parent="1">
          <mxGeometry x="200" y="210" as="geometry">
            <mxPoint x="-7" as="offset" />
          </mxGeometry>
        </mxCell>
        <mxCell id="EXJ5fEbcjcszKb9O7e2S-25" value="" style="endArrow=block;html=1;rounded=0;exitX=0.579;exitY=0.467;exitDx=0;exitDy=0;exitPerimeter=0;endFill=1;" edge="1" parent="1" source="3nuBFxr9cyL0pnOWT2aG-1" target="EXJ5fEbcjcszKb9O7e2S-1">
          <mxGeometry width="50" height="50" relative="1" as="geometry">
            <mxPoint x="400" y="340" as="sourcePoint" />
            <mxPoint x="450" y="290" as="targetPoint" />
          </mxGeometry>
        </mxCell>
        <mxCell id="EXJ5fEbcjcszKb9O7e2S-26" value="" style="endArrow=block;html=1;rounded=0;exitX=0.49;exitY=0.569;exitDx=0;exitDy=0;exitPerimeter=0;endFill=1;" edge="1" parent="1" source="EXJ5fEbcjcszKb9O7e2S-3">
          <mxGeometry width="50" height="50" relative="1" as="geometry">
            <mxPoint x="400" y="340" as="sourcePoint" />
            <mxPoint x="610" y="251" as="targetPoint" />
          </mxGeometry>
        </mxCell>
        <mxCell id="EXJ5fEbcjcszKb9O7e2S-27" value="Choose the station" style="edgeLabel;html=1;align=center;verticalAlign=middle;resizable=0;points=[];" vertex="1" connectable="0" parent="1">
          <mxGeometry x="334" y="180" as="geometry" />
        </mxCell>
        <mxCell id="EXJ5fEbcjcszKb9O7e2S-29" value="" style="endArrow=classic;html=1;rounded=0;exitX=0.528;exitY=0.867;exitDx=0;exitDy=0;exitPerimeter=0;" edge="1" parent="1" source="3nuBFxr9cyL0pnOWT2aG-1" target="EXJ5fEbcjcszKb9O7e2S-7">
          <mxGeometry width="50" height="50" relative="1" as="geometry">
            <mxPoint x="400" y="340" as="sourcePoint" />
            <mxPoint x="450" y="290" as="targetPoint" />
          </mxGeometry>
        </mxCell>
        <mxCell id="EXJ5fEbcjcszKb9O7e2S-30" value="buy ticket" style="edgeLabel;html=1;align=center;verticalAlign=middle;resizable=0;points=[];" vertex="1" connectable="0" parent="EXJ5fEbcjcszKb9O7e2S-29">
          <mxGeometry x="0.3771" y="-1" relative="1" as="geometry">
            <mxPoint x="-126" y="-11" as="offset" />
          </mxGeometry>
        </mxCell>
        <mxCell id="EXJ5fEbcjcszKb9O7e2S-31" value="" style="endArrow=block;html=1;rounded=0;exitX=0.49;exitY=0.569;exitDx=0;exitDy=0;exitPerimeter=0;endFill=1;" edge="1" parent="1">
          <mxGeometry width="50" height="50" relative="1" as="geometry">
            <mxPoint x="620" y="320.00000000000006" as="sourcePoint" />
            <mxPoint x="736" y="320.3" as="targetPoint" />
          </mxGeometry>
        </mxCell>
      </root>
    </mxGraphModel>
  </diagram>
</mxfile>
